<svg id="Layer_1" height="512" viewBox="0 0 128 128" width="512" xmlns="http://www.w3.org/2000/svg" data-name="Layer 1"><path d="m84.55 20.609-30.689 6.062-28.05 68.556 48.328 19.773 28.05-68.557zm-.712 13.091a4.3 4.3 0 1 1 -2.35-5.605 4.3 4.3 0 0 1 2.35 5.605z" fill="#9edb2c"/><path d="m79.853 38.117a6.047 6.047 0 1 1 5.605-3.759 6 6 0 0 1 -5.605 3.759zm.007-8.6a2.557 2.557 0 1 0 .966.192 2.535 2.535 0 0 0 -.966-.188z" fill="#fd9025"/><g fill="#ececf1"><path d="m59.368 54.877h5.878v40.19h-5.878z" transform="matrix(.387 .922 -.922 .387 107.354 -11.479)"/><circle cx="67.64" cy="87.689" r="5.222"/><circle cx="56.975" cy="62.255" r="5.222"/></g><path d="m81.309 37.089a1.744 1.744 0 0 1 -1.333-.615c-2.716-3.19-2.958-9.2-.6-14.954 3.049-7.449 9.183-11.751 13.96-9.8 2.44 1 4.057 3.406 4.553 6.78a19.537 19.537 0 0 1 -1.465 10 21.915 21.915 0 0 1 -2.593 4.668 1.749 1.749 0 1 1 -2.826-2.068 18.514 18.514 0 0 0 2.175-3.926 16.006 16.006 0 0 0 1.242-8.16c-.179-1.217-.731-3.361-2.414-4.049-2.5-1.022-6.973 1.964-9.4 7.886-2.055 5.021-1.542 9.515.028 11.358a1.751 1.751 0 0 1 -1.331 2.885z" fill="#3f5959"/><path d="m82.068 33.316a2.546 2.546 0 0 1 -3.168 1.112 2.48 2.48 0 0 1 -.222-.119c.341.813-.422 1.867.107 2.488a3.629 3.629 0 0 0 1.927.932 5.008 5.008 0 0 0 2.021-.479c.736-.626 1.736-2.817 1.109-3.553-.216-.249-1.604-.042-1.774-.381z" fill="#fd9025"/></svg>